<?xml version="1.0" standalone="no"?>
<!DOCTYPE svg PUBLIC "-//W3C//DTD SVG 20010904//EN"
 "http://www.w3.org/TR/2001/REC-SVG-20010904/DTD/svg10.dtd">
<svg version="1.0" xmlns="http://www.w3.org/2000/svg"
 width="120.000000pt" height="140.000000pt" viewBox="0 0 500.000000 500.000000"
 preserveAspectRatio="xMidYMid meet">

<g transform="translate(0.000000,500.000000) scale(0.100000,-0.100000)"
fill="#000000" stroke="none">
<path d="M2794 2791 c-99 -113 -75 -102 -276 -117 -49 -3 -88 -10 -88 -16 0
-6 7 -7 15 -4 32 12 238 20 234 8 -2 -6 -31 -41 -63 -78 -61 -68 -138 -115
-213 -130 -45 -9 -54 17 -24 68 17 30 19 38 7 38 -8 0 -17 -4 -21 -9 -3 -5
-21 -7 -40 -4 -28 5 -46 -1 -84 -24 -58 -36 -152 -73 -187 -73 -50 0 -42 62 9
64 36 2 56 21 39 38 -10 10 -18 9 -40 -4 -74 -46 -110 -61 -165 -66 -76 -7
-74 6 14 71 156 117 294 287 233 287 -21 0 -131 -112 -218 -220 -81 -101 -126
-133 -176 -126 -31 4 -33 3 -17 -8 15 -12 13 -15 -27 -26 -69 -19 -83 0 -45
64 17 30 18 36 6 36 -9 0 -18 -4 -21 -8 -3 -5 -18 -7 -34 -4 -16 2 -79 -13
-149 -36 l-122 -40 -23 25 c-13 14 -34 31 -48 38 -42 22 -70 54 -70 80 0 64
140 155 251 163 96 7 112 -36 41 -110 -20 -21 -31 -38 -26 -38 13 0 58 48 74
78 17 34 5 70 -26 78 -117 29 -324 -79 -324 -170 0 -36 17 -55 87 -101 24 -15
43 -33 43 -39 0 -6 -34 -24 -76 -39 -57 -22 -74 -33 -72 -45 4 -22 51 -27 100
-13 37 11 82 56 73 71 -3 5 25 18 62 31 38 12 75 24 83 27 11 4 10 0 -4 -16
-10 -12 -16 -28 -12 -37 8 -22 36 -12 108 36 32 22 60 39 62 39 2 0 -1 -13 -7
-29 -23 -61 6 -74 99 -44 30 9 56 14 60 11 3 -3 -34 -62 -81 -130 -98 -138
-140 -207 -132 -214 2 -3 18 19 35 48 16 29 68 106 114 172 l85 118 56 4 c31
3 75 11 98 19 37 14 41 13 35 -1 -17 -45 50 -57 134 -25 49 19 50 19 50 0 0
-10 5 -19 10 -19 15 0 67 28 118 62 43 29 47 29 33 -7 -12 -29 5 -55 37 -55
15 0 56 14 90 30 35 17 66 30 68 30 2 0 -18 -28 -44 -62 -80 -102 -185 -259
-178 -265 3 -4 7 -4 9 -2 50 82 182 266 264 369 l109 135 144 5 c96 3 126 7
90 10 l-55 5 49 38 c51 38 102 49 112 23 6 -16 -20 -83 -43 -109 -9 -10 -18
-24 -19 -32 -3 -19 -51 -80 -104 -130 -60 -57 -34 -13 40 68 34 37 57 67 51
67 -14 0 -141 -150 -141 -167 0 -43 92 42 170 157 28 42 52 64 85 80 87 42 84
0 -11 -137 -29 -43 -51 -79 -49 -82 3 -2 26 20 51 50 103 118 240 239 271 239
38 0 -18 -96 -147 -248 -34 -41 -59 -76 -56 -80 4 -3 13 3 20 14 8 10 49 62
91 114 79 98 130 184 120 200 -18 30 -84 -7 -184 -103 -35 -34 -60 -53 -56
-42 4 11 12 32 18 46 22 56 -11 74 -74 40 l-36 -19 11 39 c8 33 7 42 -6 56
-16 15 -20 15 -61 -1 -24 -9 -59 -32 -77 -51 -33 -34 -37 -35 -107 -35 -40 0
-73 3 -73 7 0 3 37 46 81 95 45 49 79 91 76 94 -3 3 -45 -40 -93 -95z m-669
-11 c-33 -47 -215 -224 -222 -216 -8 7 114 151 181 215 32 29 60 51 63 47 3
-3 -7 -24 -22 -46z m-39 -245 c-11 -8 -22 -12 -25 -9 -6 6 19 24 34 24 6 -1 1
-7 -9 -15z m-491 -20 c-35 -29 -107 -67 -114 -60 -16 16 81 85 119 85 l25 -1
-30 -24z m720 0 c-31 -26 -106 -67 -112 -61 -17 17 76 86 117 85 l25 0 -30
-24z m-490 -25 c-3 -5 -12 -10 -18 -10 -7 0 -6 4 3 10 19 12 23 12 15 0z
m-497 -52 c-9 -25 -71 -58 -109 -58 -22 0 -39 5 -39 10 0 6 1 10 3 10 1 0 29
11 62 25 67 28 89 31 83 13z"/>
<path d="M3715 2745 c-17 -7 -41 -24 -55 -39 -22 -24 -23 -29 -11 -49 13 -20
10 -25 -40 -70 -58 -52 -216 -137 -255 -137 -32 0 -30 17 7 71 l31 44 -36 -37
c-36 -38 -48 -82 -23 -91 39 -13 189 61 280 139 55 46 70 54 82 44 20 -17 12
-29 -94 -144 -91 -97 -111 -136 -76 -150 9 -3 38 3 65 13 48 18 211 115 279
165 63 47 21 27 -67 -31 -211 -139 -335 -175 -260 -77 12 16 57 66 100 110 43
45 78 87 78 94 0 8 -7 21 -15 30 -14 16 -14 20 8 46 32 38 49 72 39 77 -4 3
-21 -1 -37 -8z m25 -12 c0 -5 -15 -25 -33 -47 -27 -32 -35 -36 -44 -24 -14 16
-8 26 31 56 29 23 46 28 46 15z"/>
<path d="M3417 2603 c-4 -3 -7 -11 -7 -17 0 -6 5 -5 12 2 6 6 9 14 7 17 -3 3
-9 2 -12 -2z"/>
</g>
</svg>
